<svg width="0" height="0" class="hidden">
  <symbol fill="none" xmlns="http://www.w3.org/2000/svg" viewBox="0 0 24 24" id="plus">
    <path d="M4 12H20M12 4V20" stroke="#000000" stroke-width="1.5" stroke-linecap="round" stroke-linejoin="round"></path>
  </symbol>
  <symbol fill="none" xmlns="http://www.w3.org/2000/svg" viewBox="0 0 24 24" id="windows">
    <path d="M10.0576 6H20.9424M10.0576 6C10.021 6.46774 10 6.97527 10 7.5V9M10.0576 6C10.1603 4.68497 10.3857 3.68441 10.6111 3.5C10.9167 3.25 13.0556 3 15.5 3C17.9444 3 20.0833 3.25 20.3889 3.5C20.6143 3.68441 20.8397 4.68497 20.9424 6M20.9424 6C20.979 6.46774 21 6.97527 21 7.5C21 8.94595 20.8403 10.2612 20.6363 10.9735C20.5306 11.3428 20.1854 11.5206 19.8055 11.5776C18.9164 11.7111 18.1325 11.8864 16.8568 11.9623L16.8612 12M10 9C6.88889 9 4.16667 9.30556 3.77778 9.61111C3.5321 9.80414 3.28642 10.7288 3.13879 12M10 9C13.1111 9 15.8333 9.30556 16.2222 9.61111C16.4679 9.80414 16.7136 10.7288 16.8612 12M16.8612 12C16.9473 12.741 17 13.5998 17 14.5C17 16.9444 16.6111 19.0833 16.2222 19.3889C15.8333 19.6944 13.1111 20 10 20C6.88889 20 4.16667 19.6944 3.77778 19.3889C3.38889 19.0833 3 16.9444 3 14.5C3 13.5998 3.05273 12.741 3.13879 12M16.8612 12H3.13879" stroke="#000000" stroke-width="1.5" stroke-linecap="round" stroke-linejoin="round"></path>
  </symbol>
  <symbol fill="none" xmlns="http://www.w3.org/2000/svg" viewBox="0 0 24 24" id="trash">
    <path d="M14 9.5C14 9.5 14.5 10.5 14.5 12.5C14.5 14.5 14 15.5 14 15.5M10 9.5C10 9.5 9.5 10.5 9.5 12.5C9.5 14.5 10 15.5 10 15.5M5.99999 6C5.99999 11.8587 4.63107 20 12 20C19.3689 20 18 11.8587 18 6M4 6H20M15 6V5C15 3.22496 13.3627 3 12 3C10.6373 3 9 3.22496 9 5V6" stroke="#000000" stroke-width="1.5" stroke-linecap="round" stroke-linejoin="round"></path>
  </symbol>
  <symbol fill="none" xmlns="http://www.w3.org/2000/svg" viewBox="0 0 24 24" id="user">
    <path d="M17.5 21.0001H6.5C5.11929 21.0001 4 19.8808 4 18.5001C4 14.4194 10 14.5001 12 14.5001C14 14.5001 20 14.4194 20 18.5001C20 19.8808 18.8807 21.0001 17.5 21.0001Z" stroke="#000000" stroke-width="1.5" stroke-linecap="round" stroke-linejoin="round"></path>
    <path d="M12 11C14.2091 11 16 9.20914 16 7C16 4.79086 14.2091 3 12 3C9.79086 3 8 4.79086 8 7C8 9.20914 9.79086 11 12 11Z" stroke="#000000" stroke-width="1.5" stroke-linecap="round" stroke-linejoin="round"></path>
  </symbol>
  <symbol fill="none" xmlns="http://www.w3.org/2000/svg" viewBox="0 0 24 24" id="settings">
    <path d="M11 3H13C13.5523 3 14 3.44772 14 4V4.56879C14 4.99659 14.2871 5.36825 14.6822 5.53228C15.0775 5.69638 15.5377 5.63384 15.8403 5.33123L16.2426 4.92891C16.6331 4.53838 17.2663 4.53838 17.6568 4.92891L19.071 6.34312C19.4616 6.73365 19.4615 7.36681 19.071 7.75734L18.6688 8.1596C18.3661 8.46223 18.3036 8.92247 18.4677 9.31774C18.6317 9.71287 19.0034 10 19.4313 10L20 10C20.5523 10 21 10.4477 21 11V13C21 13.5523 20.5523 14 20 14H19.4312C19.0034 14 18.6318 14.2871 18.4677 14.6822C18.3036 15.0775 18.3661 15.5377 18.6688 15.8403L19.071 16.2426C19.4616 16.6331 19.4616 17.2663 19.071 17.6568L17.6568 19.071C17.2663 19.4616 16.6331 19.4616 16.2426 19.071L15.8403 18.6688C15.5377 18.3661 15.0775 18.3036 14.6822 18.4677C14.2871 18.6318 14 19.0034 14 19.4312V20C14 20.5523 13.5523 21 13 21H11C10.4477 21 10 20.5523 10 20V19.4313C10 19.0034 9.71287 18.6317 9.31774 18.4677C8.92247 18.3036 8.46223 18.3661 8.1596 18.6688L7.75732 19.071C7.36679 19.4616 6.73363 19.4616 6.34311 19.071L4.92889 17.6568C4.53837 17.2663 4.53837 16.6331 4.92889 16.2426L5.33123 15.8403C5.63384 15.5377 5.69638 15.0775 5.53228 14.6822C5.36825 14.2871 4.99659 14 4.56879 14H4C3.44772 14 3 13.5523 3 13V11C3 10.4477 3.44772 10 4 10L4.56877 10C4.99658 10 5.36825 9.71288 5.53229 9.31776C5.6964 8.9225 5.63386 8.46229 5.33123 8.15966L4.92891 7.75734C4.53838 7.36681 4.53838 6.73365 4.92891 6.34313L6.34312 4.92891C6.73365 4.53839 7.36681 4.53839 7.75734 4.92891L8.15966 5.33123C8.46228 5.63386 8.9225 5.6964 9.31776 5.53229C9.71288 5.36825 10 4.99658 10 4.56876V4C10 3.44772 10.4477 3 11 3Z" stroke="#000000" stroke-width="1.5"></path>
    <path d="M14 12C14 13.1046 13.1046 14 12 14C10.8954 14 10 13.1046 10 12C10 10.8954 10.8954 10 12 10C13.1046 10 14 10.8954 14 12Z" stroke="#000000" stroke-width="1.5"></path>
  </symbol>
  <symbol fill="none" xmlns="http://www.w3.org/2000/svg" viewBox="0 0 24 24" id="home">
    <path d="M6.49996 7C7.96131 5.53865 9.5935 4.41899 10.6975 3.74088C11.5021 3.24665 12.4978 3.24665 13.3024 3.74088C14.4064 4.41899 16.0386 5.53865 17.5 7C20.6683 10.1684 20.5 12 20.5 15C20.5 16.4098 20.3895 17.5988 20.2725 18.4632C20.1493 19.3726 19.3561 20 18.4384 20H17C15.8954 20 15 19.1046 15 18V16C15 15.2043 14.6839 14.4413 14.1213 13.8787C13.5587 13.3161 12.7956 13 12 13C11.2043 13 10.4413 13.3161 9.87864 13.8787C9.31603 14.4413 8.99996 15.2043 8.99996 16V18C8.99996 19.1046 8.10453 20 6.99996 20H5.56152C4.64378 20 3.85061 19.3726 3.72745 18.4631C3.61039 17.5988 3.49997 16.4098 3.49997 15C3.49997 12 3.33157 10.1684 6.49996 7Z" stroke="#000000" stroke-width="1.5" stroke-linecap="round" stroke-linejoin="round"></path>
  </symbol>
  <symbol fill="none" xmlns="http://www.w3.org/2000/svg" viewBox="0 0 24 24" id="cross">
    <path d="M19 5L4.99998 19M5.00001 5L19 19" stroke="#000000" stroke-width="1.5" stroke-linecap="round" stroke-linejoin="round"/>
  </symbol>
  <symbol fill="none" xmlns="http://www.w3.org/2000/svg" viewBox="0 0 24 24" id="pencil">
    <path d="M14.4443 5.68747L5.44587 14.6859C4.78722 15.3446 4.26719 16.1441 4.10888 17.062C3.94903 17.9888 3.89583 19.139 4.44432 19.6875C4.99281 20.236 6.14299 20.1828 7.0698 20.0229C7.98772 19.8646 8.78722 19.3446 9.44587 18.6859L18.4443 9.68747M14.4443 5.68747C14.4443 5.68747 17.4443 2.68747 19.4443 4.68747C21.4443 6.68747 18.4443 9.68747 18.4443 9.68747M14.4443 5.68747L18.4443 9.68747" stroke="#000000" stroke-width="1.5" stroke-linecap="round" stroke-linejoin="round"></path>
  </symbol>
  <symbol xmlns="http://www.w3.org/2000/svg" viewBox="0 0 256 256" id="profile">
    <rect fill="none" height="256" width="256"></rect>
    <circle cx="128" cy="96" fill="none" r="64" stroke="#000" stroke-miterlimit="10" stroke-width="16"></circle>
    <path d="M31,216a112,112,0,0,1,194,0" fill="none" stroke="#000" stroke-linecap="round" stroke-linejoin="round" stroke-width="16"></path>
  </symbol>
  <symbol enable-background="new 0 0 67 58" id="decks" version="1.1" xml:space="preserve" xmlns="http://www.w3.org/2000/svg" xmlns:xlink="http://www.w3.org/1999/xlink" viewBox="0 0 67 58">
    <title></title>
    <g id="Page-1">
      <g id="Stack" transform="translate(2.000000, 2.000000)">
        <path d="M6.81,31.013l-6.548,4.015    L31.217,54l30.955-18.972l-6.548-4.015" fill="none" id="Shape_1_" stroke="#6D6E71" stroke-width="2"></path>
        <path d="M55.624,22.987L62.172,27    L31.217,45.972L0.262,27l6.548-4.013" fill="none" id="Shape" stroke="#1396D7" stroke-width="2"></path>
        <path d="M31.217,37.945l30.955-18.973    L31.217,0L0.262,18.972L31.217,37.945z" fill="none" id="Shape_2_" stroke="#6D6E71" stroke-width="2"></path>
      </g>
    </g>
  </symbol>
</svg>
