<svg width="0" height="0" class="hidden">
    <symbol fill="none" xmlns="http://www.w3.org/2000/svg" viewBox="0 0 24 24" id="plus">
      <path d="M4 12H20M12 4V20" stroke="#000000" stroke-width="1.5" stroke-linecap="round" stroke-linejoin="round"></path>
    </symbol>
    <symbol fill="none" xmlns="http://www.w3.org/2000/svg" viewBox="0 0 24 24" id="windows">
      <path d="M10.0576 6H20.9424M10.0576 6C10.021 6.46774 10 6.97527 10 7.5V9M10.0576 6C10.1603 4.68497 10.3857 3.68441 10.6111 3.5C10.9167 3.25 13.0556 3 15.5 3C17.9444 3 20.0833 3.25 20.3889 3.5C20.6143 3.68441 20.8397 4.68497 20.9424 6M20.9424 6C20.979 6.46774 21 6.97527 21 7.5C21 8.94595 20.8403 10.2612 20.6363 10.9735C20.5306 11.3428 20.1854 11.5206 19.8055 11.5776C18.9164 11.7111 18.1325 11.8864 16.8568 11.9623L16.8612 12M10 9C6.88889 9 4.16667 9.30556 3.77778 9.61111C3.5321 9.80414 3.28642 10.7288 3.13879 12M10 9C13.1111 9 15.8333 9.30556 16.2222 9.61111C16.4679 9.80414 16.7136 10.7288 16.8612 12M16.8612 12C16.9473 12.741 17 13.5998 17 14.5C17 16.9444 16.6111 19.0833 16.2222 19.3889C15.8333 19.6944 13.1111 20 10 20C6.88889 20 4.16667 19.6944 3.77778 19.3889C3.38889 19.0833 3 16.9444 3 14.5C3 13.5998 3.05273 12.741 3.13879 12M16.8612 12H3.13879" stroke="#000000" stroke-width="1.5" stroke-linecap="round" stroke-linejoin="round"></path>
    </symbol>
    <symbol fill="none" xmlns="http://www.w3.org/2000/svg" viewBox="0 0 24 24" id="trash">
      <path d="M14 9.5C14 9.5 14.5 10.5 14.5 12.5C14.5 14.5 14 15.5 14 15.5M10 9.5C10 9.5 9.5 10.5 9.5 12.5C9.5 14.5 10 15.5 10 15.5M5.99999 6C5.99999 11.8587 4.63107 20 12 20C19.3689 20 18 11.8587 18 6M4 6H20M15 6V5C15 3.22496 13.3627 3 12 3C10.6373 3 9 3.22496 9 5V6" stroke="#000000" stroke-width="1.5" stroke-linecap="round" stroke-linejoin="round"></path>
    </symbol>
    <symbol fill="none" xmlns="http://www.w3.org/2000/svg" viewBox="0 0 24 24" id="user">
      <path d="M17.5 21.0001H6.5C5.11929 21.0001 4 19.8808 4 18.5001C4 14.4194 10 14.5001 12 14.5001C14 14.5001 20 14.4194 20 18.5001C20 19.8808 18.8807 21.0001 17.5 21.0001Z" stroke="#000000" stroke-width="1.5" stroke-linecap="round" stroke-linejoin="round"></path>
      <path d="M12 11C14.2091 11 16 9.20914 16 7C16 4.79086 14.2091 3 12 3C9.79086 3 8 4.79086 8 7C8 9.20914 9.79086 11 12 11Z" stroke="#000000" stroke-width="1.5" stroke-linecap="round" stroke-linejoin="round"></path>
    </symbol>
    <symbol fill="none" xmlns="http://www.w3.org/2000/svg" viewBox="0 0 24 24" id="settings">
      <path d="M11 3H13C13.5523 3 14 3.44772 14 4V4.56879C14 4.99659 14.2871 5.36825 14.6822 5.53228C15.0775 5.69638 15.5377 5.63384 15.8403 5.33123L16.2426 4.92891C16.6331 4.53838 17.2663 4.53838 17.6568 4.92891L19.071 6.34312C19.4616 6.73365 19.4615 7.36681 19.071 7.75734L18.6688 8.1596C18.3661 8.46223 18.3036 8.92247 18.4677 9.31774C18.6317 9.71287 19.0034 10 19.4313 10L20 10C20.5523 10 21 10.4477 21 11V13C21 13.5523 20.5523 14 20 14H19.4312C19.0034 14 18.6318 14.2871 18.4677 14.6822C18.3036 15.0775 18.3661 15.5377 18.6688 15.8403L19.071 16.2426C19.4616 16.6331 19.4616 17.2663 19.071 17.6568L17.6568 19.071C17.2663 19.4616 16.6331 19.4616 16.2426 19.071L15.8403 18.6688C15.5377 18.3661 15.0775 18.3036 14.6822 18.4677C14.2871 18.6318 14 19.0034 14 19.4312V20C14 20.5523 13.5523 21 13 21H11C10.4477 21 10 20.5523 10 20V19.4313C10 19.0034 9.71287 18.6317 9.31774 18.4677C8.92247 18.3036 8.46223 18.3661 8.1596 18.6688L7.75732 19.071C7.36679 19.4616 6.73363 19.4616 6.34311 19.071L4.92889 17.6568C4.53837 17.2663 4.53837 16.6331 4.92889 16.2426L5.33123 15.8403C5.63384 15.5377 5.69638 15.0775 5.53228 14.6822C5.36825 14.2871 4.99659 14 4.56879 14H4C3.44772 14 3 13.5523 3 13V11C3 10.4477 3.44772 10 4 10L4.56877 10C4.99658 10 5.36825 9.71288 5.53229 9.31776C5.6964 8.9225 5.63386 8.46229 5.33123 8.15966L4.92891 7.75734C4.53838 7.36681 4.53838 6.73365 4.92891 6.34313L6.34312 4.92891C6.73365 4.53839 7.36681 4.53839 7.75734 4.92891L8.15966 5.33123C8.46228 5.63386 8.9225 5.6964 9.31776 5.53229C9.71288 5.36825 10 4.99658 10 4.56876V4C10 3.44772 10.4477 3 11 3Z" stroke="#000000" stroke-width="1.5"></path>
      <path d="M14 12C14 13.1046 13.1046 14 12 14C10.8954 14 10 13.1046 10 12C10 10.8954 10.8954 10 12 10C13.1046 10 14 10.8954 14 12Z" stroke="#000000" stroke-width="1.5"></path>
    </symbol>
    <symbol fill="none" xmlns="http://www.w3.org/2000/svg" viewBox="0 0 24 24" id="home">
      <path d="M6.49996 7C7.96131 5.53865 9.5935 4.41899 10.6975 3.74088C11.5021 3.24665 12.4978 3.24665 13.3024 3.74088C14.4064 4.41899 16.0386 5.53865 17.5 7C20.6683 10.1684 20.5 12 20.5 15C20.5 16.4098 20.3895 17.5988 20.2725 18.4632C20.1493 19.3726 19.3561 20 18.4384 20H17C15.8954 20 15 19.1046 15 18V16C15 15.2043 14.6839 14.4413 14.1213 13.8787C13.5587 13.3161 12.7956 13 12 13C11.2043 13 10.4413 13.3161 9.87864 13.8787C9.31603 14.4413 8.99996 15.2043 8.99996 16V18C8.99996 19.1046 8.10453 20 6.99996 20H5.56152C4.64378 20 3.85061 19.3726 3.72745 18.4631C3.61039 17.5988 3.49997 16.4098 3.49997 15C3.49997 12 3.33157 10.1684 6.49996 7Z" stroke="#000000" stroke-width="1.5" stroke-linecap="round" stroke-linejoin="round"></path>
    </symbol>
    <symbol fill="none" xmlns="http://www.w3.org/2000/svg" viewBox="0 0 24 24" id="cross">
      <path d="M19 5L4.99998 19M5.00001 5L19 19" stroke="#000000" stroke-width="1.5" stroke-linecap="round" stroke-linejoin="round"></path>
    </symbol>
    <symbol fill="none" xmlns="http://www.w3.org/2000/svg" viewBox="0 0 24 24" id="pencil">
      <path d="M14.4443 5.68747L5.44587 14.6859C4.78722 15.3446 4.26719 16.1441 4.10888 17.062C3.94903 17.9888 3.89583 19.139 4.44432 19.6875C4.99281 20.236 6.14299 20.1828 7.0698 20.0229C7.98772 19.8646 8.78722 19.3446 9.44587 18.6859L18.4443 9.68747M14.4443 5.68747C14.4443 5.68747 17.4443 2.68747 19.4443 4.68747C21.4443 6.68747 18.4443 9.68747 18.4443 9.68747M14.4443 5.68747L18.4443 9.68747" stroke="#000000" stroke-width="1.5" stroke-linecap="round" stroke-linejoin="round"></path>
    </symbol>
    <symbol xmlns="http://www.w3.org/2000/svg" viewBox="0 0 256 256" id="profile">
      <rect fill="none" height="256" width="256"></rect>
      <circle cx="128" cy="96" fill="none" r="64" stroke="#000" stroke-miterlimit="10" stroke-width="16"></circle>
      <path d="M31,216a112,112,0,0,1,194,0" fill="none" stroke="#000" stroke-linecap="round" stroke-linejoin="round" stroke-width="16"></path>
    </symbol>
    <symbol enable-background="new 0 0 67 58" id="decks" version="1.1" xml:space="preserve" xmlns="http://www.w3.org/2000/svg" xmlns:xlink="http://www.w3.org/1999/xlink" viewBox="0 0 67 58">
      <title></title>
      <g id="Page-1">
        <g id="Stack" transform="translate(2.000000, 2.000000)">
          <path d="M6.81,31.013l-6.548,4.015    L31.217,54l30.955-18.972l-6.548-4.015" fill="none" id="Shape_1_" stroke="#6D6E71" stroke-width="2"></path>
          <path d="M55.624,22.987L62.172,27    L31.217,45.972L0.262,27l6.548-4.013" fill="none" id="Shape" stroke="#1396D7" stroke-width="2"></path>
          <path d="M31.217,37.945l30.955-18.973    L31.217,0L0.262,18.972L31.217,37.945z" fill="none" id="Shape_2_" stroke="#6D6E71" stroke-width="2"></path>
        </g>
      </g>
    </symbol>
    <symbol aria-hidden="true" xmlns="http://www.w3.org/2000/svg" fill="none" viewBox="0 0 24 24" id="private">
        <path stroke="currentColor" stroke-linecap="round" stroke-linejoin="round" stroke-width="2" d="M12 14v3m-3-6V7a3 3 0 1 1 6 0v4m-8 0h10a1 1 0 0 1 1 1v7a1 1 0 0 1-1 1H7a1 1 0 0 1-1-1v-7a1 1 0 0 1 1-1Z"></path>
    </symbol>
    <symbol aria-hidden="true" xmlns="http://www.w3.org/2000/svg" fill="none" viewBox="0 0 24 24" id="thumb-down">
        <path stroke="currentColor" d="M16.4996 17.9848C16.4996 20.4268 15.3595 22.1835 13.4932 22.1835C12.5183 22.1835 12.1518 21.6408 11.8021 20.3877L11.596 19.6159C11.495 19.2571 11.3192 18.6464 11.069 17.7849C11.0623 17.7618 11.0524 17.74 11.0396 17.7199L8.17281 13.2343C7.49476 12.1733 6.49429 11.3578 5.31841 10.9076L4.84513 10.7264C3.5984 10.2491 2.87457 8.94531 3.1287 7.63474L3.53319 5.54866C3.77462 4.30357 4.71828 3.31266 5.9501 3.01075L13.5778 1.14122C16.109 0.520825 18.6674 2.05576 19.3113 4.58109L20.7262 10.1302C21.1697 11.8695 20.1192 13.639 18.3799 14.0825C18.1175 14.1494 17.8478 14.1832 17.5769 14.1832H15.7536C16.2497 15.8161 16.4996 17.0759 16.4996 17.9848ZM4.60127 7.92027C4.48576 8.51599 4.81477 9.10861 5.38147 9.32558L5.85475 9.50679C7.33036 10.0718 8.58585 11.0951 9.43674 12.4265L12.3035 16.9122C12.3935 17.0531 12.4629 17.2061 12.5095 17.3667L13.0614 19.287L13.2731 20.0783C13.4125 20.5663 13.4827 20.6835 13.4932 20.6835C14.3609 20.6835 14.9996 19.6995 14.9996 17.9848C14.9996 17.1004 14.6738 15.6494 14.0158 13.6698C13.8544 13.1842 14.2158 12.6832 14.7275 12.6832H17.5769C17.7228 12.6832 17.868 12.665 18.0093 12.629C18.9459 12.3902 19.5115 11.4374 19.2727 10.5008L17.8578 4.95169C17.4172 3.22383 15.6668 2.17362 13.9349 2.5981L6.30718 4.46763C5.64389 4.6302 5.13577 5.16376 5.00577 5.83419L4.60127 7.92027Z" fill="#212121"></path>
    </symbol>
    <symbol aria-hidden="true" xmlns="http://www.w3.org/2000/svg" fill="none" viewBox="0 0 24 24" id="thumb-up">
        <path stroke="currentColor" d="M16.4996 5.20228C16.4996 2.76034 15.3595 1.00359 13.4932 1.00359C12.467 1.00359 12.1149 1.60496 11.747 3.00317C11.6719 3.29202 11.635 3.43266 11.596 3.57126C11.495 3.93 11.3192 4.54075 11.069 5.40227C11.0623 5.42535 11.0524 5.4471 11.0396 5.46718L8.17281 9.95284C7.49476 11.0138 6.49429 11.8293 5.31841 12.2795L4.84513 12.4607C3.5984 12.938 2.87457 14.2418 3.1287 15.5524L3.53319 17.6385C3.77462 18.8836 4.71828 19.8745 5.9501 20.1764L13.5778 22.0459C16.109 22.6663 18.6674 21.1314 19.3113 18.606L20.7262 13.0569C21.1697 11.3176 20.1192 9.54813 18.3799 9.10466C18.1175 9.03776 17.8478 9.00391 17.5769 9.00391H15.7536C16.2497 7.37102 16.4996 6.11123 16.4996 5.20228ZM4.60127 15.2669C4.48576 14.6711 4.81477 14.0785 5.38147 13.8615L5.85475 13.6803C7.33036 13.1154 8.58585 12.092 9.43674 10.7606L12.3035 6.27494C12.3935 6.13406 12.4629 5.981 12.5095 5.82043C12.7608 4.95542 12.9375 4.34143 13.0399 3.97754C13.083 3.82429 13.1239 3.66884 13.1976 3.38487C13.3875 2.66317 13.4809 2.50359 13.4932 2.50359C14.3609 2.50359 14.9996 3.48766 14.9996 5.20228C14.9996 6.08676 14.6738 7.53772 14.0158 9.51735C13.8544 10.0029 14.2158 10.5039 14.7275 10.5039H17.5769C17.7228 10.5039 17.868 10.5221 18.0093 10.5582C18.9459 10.797 19.5115 11.7497 19.2727 12.6863L17.8578 18.2354C17.4172 19.9633 15.6668 21.0135 13.9349 20.589L6.30718 18.7195C5.64389 18.5569 5.13577 18.0234 5.00577 17.3529L4.60127 15.2669Z" fill="#212121"></path>
    </symbol>
    <symbol aria-hidden="true" xmlns="http://www.w3.org/2000/svg" fill="none" viewBox="0 0 24 24" id="go-back">
        <path stroke="currentColor" stroke-linecap="round" stroke-linejoin="round" stroke-width="2" d="M5 12h14M5 12l4-4m-4 4 4 4"></path>
    </symbol>
</svg>
